<?xml version="1.0" standalone="no"?>
<!DOCTYPE svg PUBLIC "-//W3C//DTD SVG 20010904//EN"
 "http://www.w3.org/TR/2001/REC-SVG-20010904/DTD/svg10.dtd">
<svg version="1.0" xmlns="http://www.w3.org/2000/svg"
 width="627.000000pt" height="627.000000pt" viewBox="0 0 627.000000 627.000000"
 preserveAspectRatio="xMidYMid meet">
<metadata>
Created by potrace 1.14, written by Peter Selinger 2001-2017
</metadata>
<g transform="translate(0.000000,627.000000) scale(0.100000,-0.100000)"
fill="#000000" stroke="none">
<path d="M5 5908 c6 -435 6 -407 0 -1080 -4 -397 -3 -538 6 -538 6 0 20 -11
30 -24 16 -20 25 -23 57 -19 53 7 76 -16 67 -66 -11 -62 -5 -174 11 -213 14
-30 23 -38 53 -42 42 -6 107 -3 116 5 3 3 5 63 6 132 l0 127 35 0 c32 0 34 -2
34 -32 0 -17 11 -54 25 -82 14 -29 27 -79 31 -116 5 -56 3 -68 -14 -88 -19
-21 -22 -22 -66 -10 -57 15 -61 10 -71 -73 -8 -68 -22 -84 -70 -76 l-35 6 17
-32 c9 -18 19 -50 22 -71 6 -43 22 -55 42 -33 20 21 88 5 116 -27 12 -15 24
-46 28 -73 3 -27 20 -93 37 -147 25 -81 31 -117 31 -195 1 -130 -8 -171 -36
-172 -12 0 -42 -2 -67 -5 -48 -4 -120 20 -120 41 0 22 -40 94 -58 103 -9 5
-34 12 -54 16 -33 6 -40 3 -65 -25 -15 -18 -35 -39 -44 -48 -9 -9 -20 -26 -23
-38 -4 -14 -15 -23 -27 -23 -17 0 -19 -8 -19 -81 0 -75 1 -81 19 -76 22 5 43
-15 95 -97 26 -41 48 -62 86 -81 28 -14 60 -35 71 -46 20 -20 21 -20 34 -2 8
10 23 37 35 61 24 46 59 67 97 57 13 -3 33 1 46 10 13 8 27 12 32 8 4 -5 5 0
2 10 -4 9 -2 17 3 17 6 0 10 -5 10 -10 0 -6 11 -20 25 -32 14 -12 25 -29 25
-39 0 -10 4 -19 8 -21 10 -4 52 -106 52 -128 0 -16 29 -50 43 -50 3 0 26 20
50 44 54 53 111 82 197 99 66 14 121 14 175 2 48 -11 175 -8 234 5 30 6 66 8
80 4 14 -4 35 -9 46 -11 10 -2 29 -12 40 -23 12 -11 29 -20 38 -20 9 0 24 -11
33 -25 9 -14 22 -25 29 -25 8 0 23 -12 34 -27 12 -16 25 -33 30 -39 7 -8 4
-14 -9 -17 -18 -5 -19 -17 -18 -247 l1 -241 -24 -24 c-25 -25 -236 -173 -339
-238 -158 -100 -305 -286 -431 -547 -73 -151 -89 -209 -108 -392 -5 -48 -17
-96 -34 -130 -14 -29 -29 -75 -33 -103 -5 -38 -8 -45 -14 -30 -14 36 -40 131
-40 145 0 7 -6 21 -14 29 -20 24 -54 93 -61 125 -5 26 -9 28 -39 22 -47 -9
-112 -42 -120 -61 -4 -11 -17 -15 -42 -13 -51 3 -76 45 -116 195 -19 69 -38
123 -45 123 -6 0 -14 8 -18 19 -3 10 -24 25 -46 34 -22 9 -38 20 -35 26 4 5 2
12 -3 16 -6 3 -13 26 -17 51 -14 94 40 166 131 173 53 4 71 22 78 79 7 64 23
95 57 115 48 29 85 22 122 -22 32 -39 33 -39 60 -23 16 9 28 22 28 28 0 7 -19
33 -42 57 -70 73 -73 78 -70 127 6 131 3 153 -26 184 -39 43 -60 94 -73 178
-13 87 -4 170 25 220 25 44 16 67 -28 79 -23 6 -33 3 -55 -19 -22 -22 -35 -27
-80 -28 -30 0 -72 3 -93 6 -25 5 -41 3 -46 -4 -4 -6 -16 -16 -27 -22 -20 -11
-20 -23 -23 -1044 -1 -755 1 -1036 9 -1046 17 -21 47 -17 54 6 9 30 48 51 92
52 28 0 56 -11 103 -39 53 -32 73 -39 109 -37 24 1 57 -4 75 -11 21 -9 45 -11
74 -5 23 4 42 5 42 3 0 -2 13 5 29 16 38 27 49 26 61 -5 12 -31 -2 -95 -26
-115 -19 -16 -54 -83 -54 -104 0 -13 207 -15 2014 -15 l2014 0 5 21 c6 23 27
17 27 -7 0 -12 109 -14 789 -14 l788 0 -4 68 c-2 37 -8 82 -14 100 -20 62 7
112 60 112 l21 0 0 1176 c0 1085 -1 1176 -17 1170 -21 -8 -53 21 -53 49 0 13
-14 53 -31 90 l-32 66 -29 -35 c-39 -48 -68 -47 -106 2 -16 20 -33 48 -37 62
-4 14 -16 36 -26 49 -26 32 -24 37 13 45 28 5 36 2 60 -26 l28 -33 15 23 c23
32 42 27 65 -18 l21 -41 49 7 c41 5 51 4 55 -10 15 -48 18 -52 23 -27 2 13 -2
27 -8 31 -9 5 -9 9 -1 14 16 10 13 108 -4 130 -19 25 -19 70 0 90 10 10 15 35
15 79 l0 64 -42 16 c-24 8 -53 18 -65 22 -13 3 -23 13 -23 20 0 26 62 32 112
10 15 -6 16 1 16 60 -1 60 -4 68 -25 78 -18 8 -27 7 -41 -6 -25 -23 -59 -21
-67 3 -3 11 -18 29 -32 40 -32 25 -24 36 54 68 40 17 57 20 78 12 14 -6 28
-10 31 -10 2 0 4 612 4 1360 l0 1360 -365 0 -365 0 13 -27 c6 -16 17 -32 23
-38 7 -5 14 -26 17 -45 13 -84 42 -189 104 -367 18 -52 43 -62 83 -33 22 16
34 19 48 11 37 -20 59 -3 66 50 5 35 12 51 24 55 9 3 30 12 45 20 37 18 72 18
91 -2 24 -24 25 -98 1 -145 -23 -43 -5 -263 26 -325 17 -34 25 -69 26 -114 1
-36 5 -93 9 -126 5 -60 5 -62 -28 -93 -34 -32 -66 -39 -85 -20 -6 6 -36 12
-67 14 -31 1 -67 10 -81 19 -34 22 -50 20 -73 -9 l-19 -24 -10 22 c-6 12 -14
35 -19 52 -6 17 -18 31 -29 34 -11 2 -34 19 -50 37 -17 19 -38 34 -47 34 -23
0 -77 68 -84 108 -8 42 -30 55 -124 77 -101 24 -177 62 -205 103 l-23 33 -6
-25 c-10 -41 9 -76 43 -76 15 0 34 -7 41 -15 7 -8 18 -15 24 -14 25 3 36 -2
36 -17 0 -10 -6 -14 -15 -10 -12 4 -13 -3 -8 -42 7 -54 50 -102 91 -102 38 0
82 -51 82 -97 -1 -56 -19 -75 -71 -71 -37 3 -47 8 -67 38 -18 27 -23 44 -19
74 4 29 1 47 -13 67 -11 14 -16 30 -12 34 4 4 -2 3 -14 -3 -28 -15 -73 13 -98
60 -16 29 -27 37 -57 42 -63 10 -133 51 -155 91 -10 19 -24 35 -30 35 -17 0
-24 51 -11 79 19 39 43 49 64 25 10 -11 26 -18 36 -16 10 2 23 -1 30 -6 7 -5
20 -12 29 -15 12 -4 15 -2 11 10 -3 8 0 19 7 23 22 13 -48 87 -110 116 -30 14
-68 39 -85 54 -20 18 -50 32 -87 40 -79 16 -108 45 -107 107 2 79 11 108 37
111 39 6 91 -18 118 -54 15 -19 30 -34 35 -34 4 0 17 20 28 45 21 48 49 60 58
25 3 -11 9 -17 14 -14 5 3 9 -3 9 -13 0 -13 6 -8 20 15 11 17 24 32 28 32 5 0
33 37 62 83 29 45 62 90 74 99 20 17 3 18 -356 18 l-377 0 -3 -22 c-2 -15 -10
-23 -23 -23 -11 0 -24 10 -30 23 l-10 22 -547 0 c-496 0 -548 -2 -548 -16 0
-24 -31 -84 -43 -84 -13 0 -35 27 -53 68 l-14 32 -211 0 c-190 0 -214 -2 -237
-19 -15 -10 -38 -22 -52 -25 -78 -22 -78 -22 -64 -78 8 -28 16 -53 19 -56 2
-3 -4 -17 -15 -33 l-20 -27 40 -39 c40 -38 40 -38 31 -87 -5 -29 -19 -58 -34
-73 -21 -22 -30 -24 -65 -18 -24 4 -56 20 -80 41 -22 19 -47 34 -55 34 -8 0
-20 14 -27 31 l-13 30 -26 -25 c-36 -34 -72 -41 -109 -22 -30 16 -82 22 -82
10 0 -3 18 -23 39 -44 22 -20 43 -50 47 -64 6 -24 10 -27 33 -21 14 4 30 14
35 22 7 14 11 13 25 -6 16 -21 18 -21 46 -7 17 9 40 16 53 16 12 0 22 5 22 10
0 18 28 11 59 -16 27 -23 31 -32 31 -78 0 -72 -23 -96 -91 -96 -36 0 -64 -8
-98 -26 -44 -25 -48 -26 -83 -11 -26 11 -42 26 -52 51 -16 39 -55 61 -88 50
-11 -3 -39 -19 -63 -35 -24 -16 -53 -29 -65 -29 -23 0 -63 38 -95 90 -26 44
-40 47 -53 13 -18 -44 -43 -163 -37 -173 11 -17 -36 -32 -82 -25 -35 5 -49 3
-64 -11 -26 -23 -40 -9 -46 49 -4 36 -1 52 16 76 l22 30 -21 60 c-26 78 -25
93 5 129 21 25 24 34 15 57 -19 49 -12 85 21 116 69 64 149 8 149 -104 0 -48
28 -96 48 -83 29 18 31 43 7 76 -14 19 -27 50 -31 69 -13 83 -15 87 -44 98
-21 8 -36 26 -54 65 -14 29 -36 66 -49 82 -23 27 -27 28 -57 17 -41 -14 -97
-14 -105 -1 -10 16 -234 12 -294 -6 -55 -16 -76 -40 -47 -56 9 -5 21 -21 27
-35 l10 -26 22 21 c30 28 70 36 99 21 26 -14 41 -33 75 -97 21 -39 22 -47 9
-61 -7 -9 -26 -54 -41 -101 -41 -126 -79 -158 -171 -143 -42 7 -51 13 -70 46
l-20 37 -23 -24 c-13 -14 -35 -28 -50 -31 -14 -3 -37 -21 -49 -40 -13 -19 -39
-46 -58 -60 -28 -21 -40 -24 -74 -19 -22 4 -40 10 -40 15 0 5 -11 9 -24 9 -13
0 -29 7 -36 15 -7 8 -19 15 -26 15 -8 0 -14 3 -14 8 0 11 -84 102 -94 102 -6
0 -19 8 -30 19 -12 10 -46 26 -77 36 -67 20 -68 21 -102 66 -18 23 -28 53 -32
90 -6 52 5 156 20 192 6 15 0 17 -66 17 l-72 0 24 -26 c18 -19 24 -37 24 -67
-2 -110 -33 -167 -94 -167 -44 0 -68 16 -105 69 -38 54 -32 99 21 153 l37 38
-117 0 -118 0 6 -362z m3653 246 c45 -38 52 -64 31 -122 -13 -39 -1 -63 46
-92 29 -18 35 -28 33 -48 -4 -38 -59 -72 -116 -72 -49 0 -157 17 -182 29 -20
10 -56 85 -71 147 -11 50 -11 53 17 90 44 58 63 72 129 88 33 8 63 15 66 15 3
1 24 -15 47 -35z m375 24 c3 -10 9 -10 26 0 53 31 131 1 131 -50 -1 -74 -37
-100 -98 -69 -37 19 -38 19 -61 0 -22 -18 -25 -18 -42 -3 -23 21 -24 46 -2 96
17 38 37 49 46 26z m657 -66 c47 -38 -19 -81 -84 -56 -16 6 -21 30 -10 58 8
22 66 21 94 -2z m-3073 -151 c13 -80 6 -140 -22 -187 -25 -42 -61 -64 -84 -49
-17 10 -13 50 9 113 12 31 25 77 31 102 11 50 22 67 43 67 10 0 18 -16 23 -46z
m2832 -150 c10 -6 26 -28 36 -50 19 -44 75 -81 121 -81 14 0 32 -7 40 -15 9
-9 34 -15 59 -15 50 0 59 -10 62 -65 4 -87 28 -185 54 -218 36 -46 79 -144 79
-181 0 -39 -41 -83 -87 -92 -23 -5 -35 -14 -42 -35 -12 -36 -24 -36 -63 -3
-20 16 -37 23 -47 18 -9 -4 -27 -9 -41 -12 -14 -2 -29 -8 -35 -12 -17 -14 -48
-14 -105 -2 -55 12 -55 12 -54 50 1 20 2 42 4 47 9 37 -41 183 -86 246 -49 70
-64 104 -66 149 -1 32 5 47 28 71 26 27 29 37 29 94 0 56 3 66 28 89 29 27 56
32 86 17z m-4107 -284 c19 -23 19 -31 2 -219 l-6 -58 -38 0 c-54 0 -82 13
-124 57 -33 35 -36 42 -36 101 0 63 1 65 46 109 45 43 48 45 92 38 28 -4 52
-15 64 -28z m242 -107 c53 -20 102 -15 135 13 18 15 42 28 54 28 12 1 34 3 49
5 15 1 30 -1 33 -6 3 -5 8 -41 11 -81 3 -40 7 -77 10 -81 8 -12 34 11 34 28 0
8 6 14 13 14 19 0 97 44 97 55 1 29 31 47 81 51 29 2 56 9 60 16 8 12 14 10
78 -21 8 -4 18 -15 23 -24 4 -9 12 -25 18 -34 21 -39 60 -122 60 -128 0 -4 13
-20 29 -36 41 -40 51 -107 26 -169 -20 -49 -32 -160 -18 -160 5 0 14 5 20 11
8 8 18 6 37 -6 24 -16 26 -23 26 -85 0 -74 -25 -143 -42 -119 -8 12 -10 12
-15 0 -4 -10 -7 -10 -13 -1 -5 7 -14 0 -27 -22 -18 -31 -39 -46 -88 -63 -11
-4 -15 -9 -9 -12 6 -2 10 -19 8 -38 -2 -26 3 -38 16 -45 11 -6 26 -34 36 -70
9 -33 21 -60 25 -60 5 0 9 -15 8 -32 0 -28 -2 -30 -9 -13 -5 11 -9 15 -9 9 -1
-6 -14 -14 -30 -17 -24 -5 -32 -14 -46 -57 -19 -58 -61 -95 -121 -108 -46 -9
-65 -45 -46 -86 10 -22 14 -24 44 -15 79 22 146 2 175 -54 18 -34 23 -116 10
-158 -6 -19 -4 -31 8 -43 22 -22 32 -20 63 11 24 25 34 28 89 27 96 -1 143
-47 143 -141 0 -51 7 -59 62 -67 47 -7 47 -7 61 27 18 43 103 97 152 97 42 0
60 -23 76 -97 7 -31 16 -50 21 -45 5 5 4 21 -3 38 -6 16 -12 61 -13 99 -1 62
3 77 34 134 37 69 91 117 144 127 21 3 53 -2 92 -16 54 -19 66 -20 149 -10
156 20 217 29 223 35 3 3 6 41 5 85 0 44 4 80 9 80 4 0 8 8 8 19 0 10 7 24 15
31 8 7 13 15 11 19 -2 3 4 24 15 45 10 22 19 46 19 53 0 21 -18 15 -25 -8 -4
-13 -11 -17 -16 -12 -16 16 0 38 34 52 20 7 44 30 65 61 33 52 41 76 20 64 -7
-3 1 5 17 20 33 28 43 30 64 17 8 -5 10 -14 6 -22 -6 -9 -1 -8 11 2 10 9 37
20 59 24 22 3 47 13 55 20 8 7 32 16 53 20 30 6 37 4 37 -9 0 -19 4 -19 28 -7
9 5 48 21 87 36 108 41 317 73 300 45 -3 -6 2 -13 12 -16 10 -3 28 -10 39 -16
15 -7 38 -6 77 2 72 17 148 0 140 -31 -7 -24 8 -24 38 0 21 17 27 18 49 6 14
-7 46 -21 73 -30 26 -9 54 -23 61 -31 8 -8 19 -14 25 -14 6 0 11 -5 11 -12 0
-6 6 -19 14 -27 7 -9 21 -47 31 -86 9 -38 23 -80 31 -92 18 -28 18 -30 -5 -36
-12 -3 -27 3 -37 14 -16 18 -17 18 -36 -6 -11 -14 -26 -25 -35 -25 -9 0 -31
-16 -49 -36 -28 -29 -34 -43 -34 -78 l0 -43 52 -7 c29 -4 58 -12 64 -17 9 -7
20 -2 38 16 22 22 33 25 95 25 38 0 72 -4 76 -9 3 -5 18 -12 34 -16 16 -3 37
-15 46 -25 17 -19 17 -19 -5 -15 -13 3 -44 11 -69 19 -87 28 -114 29 -144 6
-25 -20 -27 -27 -27 -94 0 -61 3 -76 21 -92 58 -52 73 -139 36 -213 -9 -18
-14 -38 -11 -44 7 -18 81 -65 115 -72 45 -10 152 30 187 69 49 56 52 54 52
-25 0 -68 -2 -73 -33 -103 -46 -43 -53 -86 -26 -155 13 -35 17 -57 10 -64 -10
-10 -7 -15 40 -67 22 -25 27 -27 40 -15 27 27 129 16 129 -15 0 -5 10 -12 23
-15 12 -4 32 -16 43 -27 22 -19 22 -19 48 9 22 22 26 34 21 58 -15 70 -11 99
14 111 18 10 30 9 55 -1 28 -12 31 -18 30 -54 -1 -32 3 -42 19 -47 10 -3 24
-1 31 6 8 9 5 16 -12 30 -17 14 -22 25 -17 40 6 20 39 33 97 39 4 1 -4 17 -17
37 -14 20 -25 42 -25 48 0 21 -57 37 -126 34 l-69 -3 -32 60 c-18 33 -42 86
-54 117 -22 58 -35 70 -80 72 -14 0 -34 7 -43 15 -14 12 -22 12 -37 3 -10 -7
-21 -12 -24 -12 -10 0 -4 88 10 144 17 65 13 79 -40 136 -44 46 -59 101 -40
146 12 30 12 34 -2 34 -13 0 -15 8 -10 50 8 68 22 90 55 90 22 0 32 7 44 34
11 23 25 35 45 39 15 3 30 1 32 -4 1 -6 11 -18 20 -27 10 -9 21 -25 25 -36 6
-17 8 -17 24 -4 26 23 83 48 108 48 16 0 36 -18 69 -60 48 -63 65 -103 65
-156 0 -34 33 -84 47 -71 4 5 8 51 7 103 -1 92 -1 94 22 94 13 0 24 -5 24 -11
0 -5 4 -8 9 -5 4 3 22 -12 40 -34 32 -40 32 -40 15 -75 -13 -28 -14 -38 -4
-50 15 -18 -13 -59 -52 -75 -26 -12 -58 -63 -58 -93 0 -9 16 -47 35 -86 19
-38 35 -74 35 -80 0 -15 40 -39 70 -42 49 -4 60 8 60 68 0 44 7 67 31 109 28
50 29 56 18 96 -7 24 -19 51 -27 60 -21 25 -27 111 -11 150 17 43 77 98 105
98 53 0 87 -68 90 -185 5 -130 6 -134 42 -172 17 -19 32 -41 32 -48 0 -26 35
-90 60 -110 14 -11 43 -38 65 -60 l41 -41 -7 -94 c-8 -113 -5 -128 23 -103 16
14 21 15 28 3 5 -8 6 -18 4 -22 -3 -4 5 -12 18 -17 28 -10 44 -41 52 -95 3
-21 13 -44 22 -50 14 -11 14 -14 1 -27 -8 -8 -22 -41 -31 -72 -20 -69 -43 -85
-79 -57 -35 27 -47 25 -95 -16 -47 -40 -51 -53 -22 -72 25 -15 26 -63 2 -85
-15 -13 -24 -14 -67 -3 l-50 13 -3 69 c-4 105 -37 137 -93 88 -20 -18 -54 -18
-73 1 -19 20 -62 19 -70 -1 -3 -9 3 -27 13 -41 22 -28 18 -53 -9 -53 -12 0
-22 -12 -30 -37 -22 -68 -62 -97 -148 -109 -30 -4 -53 -12 -56 -21 -3 -8 -3
-40 1 -71 5 -45 12 -63 35 -83 l28 -27 -30 -32 c-26 -28 -33 -30 -67 -24 -46
8 -73 30 -73 59 0 12 -14 39 -30 60 -17 21 -30 43 -30 50 0 6 -9 20 -20 30
-14 13 -20 29 -18 49 3 31 3 31 59 28 61 -3 76 9 63 50 -4 14 -11 17 -27 11
-12 -4 -41 -7 -64 -7 -35 1 -43 -2 -43 -17 0 -33 -19 -69 -33 -63 -20 7 -70
111 -63 129 3 10 -1 15 -13 15 -26 0 -71 38 -71 61 0 25 -7 24 -59 -11 -32
-22 -48 -27 -60 -20 -34 18 -44 40 -43 100 1 56 -11 79 -24 45 -4 -11 -11 -12
-24 -5 -20 11 -34 -1 -42 -36 -4 -15 2 -23 23 -33 31 -14 42 -35 33 -63 -5
-16 -11 -18 -32 -13 -45 11 -54 24 -47 67 5 29 3 38 -7 38 -19 0 -43 31 -44
55 -4 85 -4 90 -14 75 -5 -8 -10 -10 -10 -4 0 5 4 14 9 20 5 5 14 42 20 83 9
59 9 76 -1 83 -10 6 -10 8 -1 8 16 0 6 30 -16 49 -14 12 -14 13 2 7 10 -3 24
-6 31 -6 9 0 13 -19 15 -57 3 -107 17 -167 37 -159 7 3 20 -5 28 -16 9 -12 19
-19 22 -15 12 12 10 91 -3 131 -7 21 -13 55 -13 75 0 35 -1 37 -51 48 -28 7
-69 26 -91 42 -23 17 -45 28 -49 25 -5 -2 -2 16 5 41 8 25 10 43 6 40 -5 -3
-15 1 -22 9 -24 23 -162 20 -241 -6 -59 -20 -69 -21 -77 -8 -5 8 -7 23 -4 34
5 16 2 15 -26 -5 -78 -58 -317 -4 -386 87 -30 39 -53 129 -54 205 l0 46 -52 7
c-78 9 -128 7 -128 -4 0 -6 6 -10 13 -9 6 1 33 1 58 0 l46 -1 1 -47 c1 -64 36
-181 63 -209 12 -13 41 -32 64 -43 49 -23 72 -48 37 -39 -12 4 -20 2 -17 -2 7
-11 -21 -79 -38 -94 -25 -21 -49 -124 -42 -177 4 -27 11 -49 16 -49 5 0 9 -11
9 -24 0 -17 -5 -23 -17 -22 -15 1 -19 -8 -21 -46 -2 -27 -7 -48 -12 -48 -5 0
-6 27 -4 61 6 60 5 60 -16 49 -26 -14 -50 -7 -50 16 0 14 -3 14 -15 4 -12 -10
-21 -10 -41 -1 -36 16 -37 15 -31 -31 5 -32 4 -37 -3 -21 -5 13 -11 35 -13 50
-3 24 -8 28 -35 28 -30 1 -32 -1 -32 -37 0 -32 -4 -39 -26 -44 -38 -10 -86 46
-51 59 8 4 7 6 -4 6 -8 1 -24 -6 -35 -14 -11 -8 -14 -14 -6 -15 7 0 16 -8 19
-17 4 -10 13 -23 22 -29 8 -6 12 -18 8 -28 -5 -13 -13 -10 -41 21 -36 39 -56
41 -36 3 18 -33 3 -37 -24 -6 -13 16 -26 24 -30 18 -3 -6 0 -17 8 -24 7 -8 17
-25 21 -38 6 -22 4 -21 -17 7 -24 33 -48 43 -48 20 0 -7 7 -22 15 -33 22 -30
18 -35 -22 -28 -22 4 -50 20 -71 41 -25 25 -37 31 -46 24 -7 -6 -16 -8 -19 -4
-13 12 -7 -13 7 -33 19 -27 5 -54 -18 -35 -9 8 -16 20 -16 27 0 8 -4 14 -10
14 -5 0 -10 10 -10 21 0 12 -13 34 -28 49 -16 15 -32 34 -35 44 -9 22 -33 20
-49 -3 -47 -67 -226 -58 -311 17 -35 31 -34 27 37 -193 30 -92 35 -192 11
-201 -19 -8 -31 -70 -16 -88 7 -9 12 -54 12 -116 0 -56 4 -99 7 -95 4 4 7 10
8 13 5 42 62 102 97 102 23 0 29 33 12 66 -8 16 -15 36 -15 45 0 8 -5 20 -11
26 -6 6 -11 28 -11 48 0 25 -3 33 -9 24 -5 -9 -7 -3 -4 16 2 17 4 44 4 62 1
23 7 33 21 38 11 3 20 13 20 21 0 13 35 21 70 15 8 -2 37 -3 64 -2 60 1 79
-14 111 -84 29 -66 88 -157 128 -198 48 -50 70 -85 87 -136 8 -25 19 -52 24
-60 5 -8 4 -16 -2 -20 -11 -7 1 -92 18 -122 13 -24 24 -92 29 -181 1 -10 8
-18 16 -18 10 0 15 -10 15 -32 0 -17 9 -51 21 -74 16 -35 18 -47 9 -64 -6 -12
-9 -34 -5 -49 4 -19 1 -32 -10 -41 -8 -7 -15 -22 -15 -34 1 -29 36 -106 50
-106 6 0 8 -10 4 -25 -4 -15 -1 -32 6 -40 9 -11 9 -15 1 -15 -9 0 -9 -5 -1
-20 6 -11 8 -20 5 -20 -3 0 -8 -1 -12 -2 -5 -2 -8 6 -8 16 0 11 -6 21 -13 23
-7 3 -10 -1 -6 -11 3 -9 1 -16 -4 -16 -6 0 -14 10 -18 23 -11 36 -35 58 -57
51 -16 -5 -19 -3 -14 10 4 9 3 15 -2 13 -8 -2 -90 92 -131 153 -14 19 -30 41
-37 48 -7 7 -46 55 -87 105 -71 89 -214 227 -280 272 -17 12 -44 33 -60 48
-16 15 -40 28 -52 28 -13 1 -28 3 -34 4 -5 1 -14 3 -19 4 -4 0 -11 34 -14 74
-4 39 -9 103 -13 141 -6 57 -4 70 9 77 11 7 13 16 8 36 -5 20 -16 28 -51 38
-25 6 -62 20 -84 30 -29 14 -43 16 -55 8 -10 -6 -24 -7 -32 -3 -15 8 -56 13
-100 11 -14 -1 -38 -12 -53 -26 -33 -30 -92 -34 -111 -8 -10 13 -16 15 -27 6
-9 -8 -90 -13 -243 -15 -200 -2 -237 0 -285 15 -78 26 -96 36 -110 63 -7 13
-16 21 -20 19 -5 -3 -10 2 -14 10 -10 27 -23 16 -36 -30 -7 -25 -18 -49 -25
-53 -6 -4 -20 -23 -31 -42 -23 -42 -32 -51 -66 -69 -28 -14 -48 -9 -48 15 0 8
-4 14 -8 14 -12 0 -42 56 -42 79 0 14 -13 27 -40 41 -27 14 -53 39 -75 75 -32
49 -37 66 -51 187 -23 197 -11 281 52 348 12 14 30 41 38 61 21 50 75 95 124
102 48 8 59 30 32 64 -25 32 -28 150 -4 219 8 25 13 48 11 51 -9 9 -81 25
-116 27 -30 1 -35 -3 -46 -33 -14 -42 -48 -55 -94 -35 -34 14 -51 47 -51 100
0 24 -4 34 -12 32 -29 -10 -70 75 -42 86 12 5 12 10 -3 33 -16 24 -18 49 -16
208 2 215 5 235 43 276 26 29 28 34 14 53 -8 11 -14 29 -14 40 0 34 37 81 75
95 37 13 43 36 9 36 -22 0 -35 21 -53 88 -23 82 5 215 56 269 20 21 23 30 15
41 -9 10 -8 17 1 26 9 10 13 6 15 -19 2 -21 10 -34 26 -40z m1160 -13 c28 -36
49 -114 37 -135 -14 -25 -82 -43 -117 -31 -52 17 -68 41 -60 96 13 95 91 134
140 70z m46 -237 c22 -12 50 -64 50 -94 0 -12 -9 -36 -21 -55 -30 -50 -24 -56
88 -86 24 -6 46 -57 40 -93 -2 -12 -15 -32 -30 -46 -26 -24 -31 -42 -27 -97 0
-14 -7 -41 -18 -60 -10 -19 -27 -78 -37 -131 -17 -88 -24 -104 -47 -97 -2 0
-14 -4 -28 -9 -19 -7 -35 -6 -59 4 -25 11 -37 11 -47 3 -22 -18 -16 -29 15
-29 23 0 34 -8 50 -35 27 -46 13 -81 -38 -95 -31 -8 -44 -6 -98 20 -34 17 -78
30 -98 30 -41 0 -131 42 -103 48 21 4 30 47 26 127 -3 50 0 60 14 63 12 2 21
-6 28 -23 13 -34 32 -28 42 13 5 18 20 39 33 48 29 19 31 43 9 89 -15 32 -14
34 20 88 37 58 43 77 26 77 -7 0 -8 14 -4 37 4 21 8 46 9 58 5 57 22 90 71
141 30 30 58 54 64 54 5 0 10 5 10 12 0 11 29 48 37 48 2 0 13 -4 23 -10z
m2750 -239 c0 -5 7 -16 15 -25 8 -8 16 -36 18 -61 l2 -47 -47 -4 c-38 -4 -52
0 -68 16 -28 28 -27 78 3 89 13 5 29 16 36 25 15 17 41 22 41 7z m-1940 -36
c-7 -9 -15 -13 -17 -11 -6 6 20 36 26 30 2 -2 -2 -10 -9 -19z m-568 -85 c-12
-12 -22 -25 -22 -30 0 -14 -30 -40 -47 -40 -12 0 -12 6 5 33 19 30 55 57 76
57 6 0 0 -9 -12 -20z m2350 -42 c-2 -20 -13 -40 -29 -52 -25 -18 -25 -18 -49
6 -22 22 -23 25 -9 46 14 19 71 44 86 36 3 -1 3 -18 1 -36z m-162 -110 c3 -4
14 -6 25 -5 13 1 20 -4 20 -18 0 -14 8 -21 25 -23 98 -10 120 -24 120 -76 0
-28 -3 -32 -27 -31 -30 0 -30 -2 -21 -95 3 -33 1 -35 -29 -38 -29 -3 -35 1
-50 35 -9 21 -24 46 -32 56 -18 21 -79 23 -87 2 -4 -8 -12 -15 -20 -15 -8 0
-14 -6 -14 -12 0 -7 -5 -5 -11 5 -8 13 -7 27 1 48 8 18 10 48 6 77 -3 26 -3
69 0 95 l7 47 41 -23 c22 -12 43 -25 46 -29z m57 16 c-3 -3 -12 -4 -19 -1 -8
3 -5 6 6 6 11 1 17 -2 13 -5z m1610 -54 c22 -26 54 -36 156 -46 28 -2 75 -63
93 -121 16 -47 16 -54 2 -75 -9 -13 -33 -29 -54 -36 -34 -10 -44 -9 -94 14
-30 14 -77 28 -105 31 -60 7 -121 36 -129 61 -6 17 -7 83 -5 184 1 26 6 38 18
41 27 6 95 -24 118 -53z m-1074 43 c2 -5 7 -24 11 -44 l6 -35 -35 4 c-39 5
-41 10 -20 52 15 29 29 38 38 23z m-2112 -146 c-10 -9 -11 -8 -5 6 3 10 9 15
12 12 3 -3 0 -11 -7 -18z m53 -2 c-4 -8 -12 -15 -20 -15 -17 0 -18 17 -1 23
22 9 27 7 21 -8z m13 -30 c-4 -8 -11 -15 -17 -15 -6 0 -6 7 2 20 14 22 24 19
15 -5z m-41 -40 c-4 -14 -11 -25 -17 -25 -6 0 -7 5 -2 13 8 13 9 17 13 45 1
11 3 13 7 4 3 -7 2 -24 -1 -37z m2176 30 c0 -5 -5 -11 -11 -13 -6 -2 -11 4
-11 13 0 9 5 15 11 13 6 -2 11 -8 11 -13z m-2262 -89 c0 -23 -16 -27 -17 -5
-1 10 2 19 8 19 5 0 9 -6 9 -14z m16 -83 c-4 -4 -11 -1 -16 7 -7 11 -11 8 -21
-15 -6 -17 -13 -24 -16 -17 -3 7 3 24 12 38 16 24 18 25 33 10 9 -8 12 -19 8
-23z m1510 -8 c2 -22 0 -23 -14 -9 -13 14 -13 17 -1 25 8 5 14 9 14 9 0 0 1
-11 1 -25z m-1559 -67 c-3 -8 -6 -5 -6 6 -1 11 2 17 5 13 3 -3 4 -12 1 -19z
m-1237 -53 c0 -8 -4 -15 -9 -15 -5 0 -11 7 -15 15 -3 9 0 15 9 15 8 0 15 -7
15 -15z m-720 -95 c22 0 50 -46 50 -81 0 -40 -26 -69 -61 -69 -26 0 -69 57
-69 91 0 34 34 73 57 65 8 -3 19 -6 23 -6z m2627 -182 c-3 -8 -6 -5 -6 6 -1
11 2 17 5 13 3 -3 4 -12 1 -19z m2914 5 c18 -21 21 -151 4 -179 -7 -11 -15
-31 -17 -44 -3 -21 -9 -23 -66 -26 -57 -3 -64 -1 -71 19 -13 34 -4 76 24 112
14 19 25 40 25 49 0 8 6 19 13 23 8 4 22 20 32 36 20 31 37 34 56 10z m-2373
-408 c88 -3 117 -8 164 -29 62 -27 89 -57 87 -96 -2 -23 -2 -23 -6 -2 -4 19
-20 27 -45 23 -8 -1 -11 14 -9 39 1 12 0 12 -7 2 -7 -11 -25 -9 -94 7 -62 15
-93 18 -116 11 -18 -5 -49 -9 -70 -8 -20 0 -57 -5 -82 -11 -59 -14 -113 -14
-105 -1 8 13 104 60 122 60 7 0 13 7 13 15 0 13 4 14 20 5 11 -6 68 -12 128
-15z m2122 -52 c22 -50 21 -70 -5 -79 -21 -8 -63 31 -82 74 -17 41 -11 52 32
52 31 0 36 -4 55 -47z m125 -68 c28 -29 30 -36 13 -81 -10 -29 -9 -36 6 -53
14 -16 16 -27 9 -62 l-8 -42 -32 31 c-17 18 -40 32 -50 32 -19 0 -62 25 -75
44 -4 6 -8 19 -8 29 0 24 50 97 66 97 8 0 14 7 14 15 0 24 37 18 65 -10z
m-2398 -40 c18 -13 22 -13 33 0 14 17 46 20 55 5 4 -6 28 -7 60 -4 46 6 56 4
61 -10 6 -16 8 -16 24 -1 17 15 20 15 39 -4 12 -12 25 -21 31 -21 11 0 24 -63
18 -88 -3 -10 2 -24 10 -31 13 -12 17 -12 28 4 20 27 29 10 27 -48 -1 -40 3
-56 17 -69 19 -17 20 -17 30 22 6 22 15 40 20 40 5 0 12 11 16 25 3 14 10 25
15 25 5 0 9 8 9 17 0 13 3 14 11 6 9 -9 9 -19 -1 -42 -7 -17 -10 -40 -7 -51 7
-28 -59 -96 -89 -92 -15 2 -24 -3 -29 -18 -10 -30 0 -35 40 -23 21 7 37 7 41
2 11 -18 68 -9 93 14 15 13 39 29 54 35 25 11 29 10 36 -10 11 -31 -2 -82 -33
-127 -14 -20 -26 -44 -26 -52 0 -19 -104 -119 -124 -119 -12 0 -16 11 -16 45
0 38 -3 45 -19 45 -11 0 -22 -4 -25 -9 -10 -16 -30 -6 -69 33 -21 22 -36 45
-33 52 3 8 1 14 -5 14 -5 0 -14 -10 -19 -22 -5 -13 -9 -18 -9 -11 -1 8 -11 7
-33 -4 -17 -9 -44 -16 -60 -17 -15 -1 -28 -7 -28 -13 0 -11 -42 -19 -72 -14
-5 0 -8 -5 -8 -11 0 -9 -4 -8 -10 2 -8 13 -10 13 -10 1 0 -12 -3 -12 -12 -3
-17 17 -39 15 -54 -5 -13 -17 -13 -17 -14 0 0 14 -4 16 -19 7 -13 -7 -22 -7
-26 0 -3 5 -17 10 -30 10 -12 0 -25 7 -29 15 -3 8 -15 15 -26 15 -11 0 -20 3
-20 8 0 8 -48 32 -66 32 -6 0 -14 9 -17 21 -4 14 -11 19 -24 16 -62 -18 -83
-18 -83 -2 0 9 -5 13 -11 10 -6 -4 -13 2 -16 13 -3 11 -12 23 -20 26 -11 5 -9
12 11 39 14 19 26 39 26 45 0 7 5 12 11 12 5 0 8 4 4 9 -3 6 4 15 15 21 13 7
20 21 20 40 0 56 28 104 66 112 11 2 20 13 22 26 5 30 28 39 51 18 24 -22 52
-20 58 3 4 17 9 18 28 9 13 -6 26 -20 28 -32 3 -14 5 -10 6 11 1 32 23 63 44
63 7 0 22 -7 34 -15z m-597 -51 c0 -22 -2 -24 -14 -14 -8 6 -12 18 -9 26 9 23
23 16 23 -12z m280 -4 c0 -5 -4 -10 -10 -10 -5 0 -10 5 -10 10 0 6 5 10 10 10
6 0 10 -4 10 -10z m810 -42 c0 -5 -4 -8 -10 -8 -5 0 -10 10 -10 23 0 18 2 19
10 7 5 -8 10 -18 10 -22z m-946 -23 c-4 -8 -8 -15 -10 -15 -2 0 -4 7 -4 15 0
8 4 15 10 15 5 0 7 -7 4 -15z m926 -10 c0 -8 -4 -15 -10 -15 -5 0 -7 7 -4 15
4 8 8 15 10 15 2 0 4 -7 4 -15z m-884 -53 c-11 -10 -15 4 -8 28 l7 25 3 -23
c2 -13 1 -26 -2 -30z m-435 1 c13 -16 12 -17 -3 -4 -17 13 -22 21 -14 21 2 0
10 -8 17 -17z m3145 -68 c8 -19 -13 -45 -31 -39 -16 7 -27 32 -19 45 9 15 44
10 50 -6z m192 -7 c18 -18 14 -38 -7 -38 -20 0 -35 25 -25 41 7 12 18 11 32
-3z m-925 -149 c15 -16 27 -36 27 -43 0 -13 52 -42 103 -59 21 -8 22 -31 1
-51 -19 -20 -17 -20 -61 4 -21 11 -43 20 -50 20 -7 0 -36 16 -63 35 -39 27
-55 33 -68 26 -25 -13 -41 -1 -48 37 -6 29 -4 32 19 32 13 0 35 9 48 20 30 24
55 18 92 -21z m632 1 c0 -32 -30 -39 -45 -10 -14 26 -4 42 23 38 16 -2 22 -10
22 -28z m-265 -39 c0 -10 -11 -24 -25 -31 -22 -12 -28 -12 -42 2 -20 21 -11
45 19 50 33 5 48 -1 48 -21z m-900 -107 c32 -33 35 -41 34 -93 0 -31 -6 -67
-14 -80 -19 -36 -62 -70 -88 -71 -23 0 -24 2 -17 59 5 45 3 66 -9 90 -9 17
-18 31 -20 31 -2 0 -11 -25 -21 -56 -15 -49 -22 -57 -56 -71 -22 -8 -44 -23
-49 -33 -12 -22 -57 -32 -64 -14 -3 9 -16 11 -40 7 -34 -5 -36 -4 -36 21 0 37
17 66 38 66 10 0 35 9 57 20 22 11 53 22 71 23 43 5 49 10 84 71 44 79 76 86
130 30z m397 -9 c1 0 4 -12 8 -27 6 -23 3 -29 -19 -39 -32 -15 -46 -4 -65 47
-17 46 -2 59 43 35 17 -9 32 -16 33 -16z m-769 -107 c3 -14 -3 -18 -26 -18
-35 0 -45 9 -30 27 15 19 52 12 56 -9z m735 -68 c13 -11 28 -32 32 -47 3 -15
15 -39 26 -55 23 -32 18 -68 -10 -68 -25 0 -69 43 -86 83 -16 38 -31 53 -60
59 -32 6 -31 36 2 41 57 8 71 7 96 -13z m-3067 -49 c-9 -10 -16 -25 -16 -34 0
-9 -5 -17 -11 -17 -7 0 -8 7 -4 18 4 9 10 27 12 39 3 13 9 20 14 17 5 -3 10 3
10 13 1 17 2 17 6 0 3 -10 -2 -26 -11 -36z m2154 -30 c0 -9 9 -36 20 -60 l20
-44 -29 -44 c-17 -25 -31 -49 -33 -55 -2 -5 -17 -2 -34 8 l-31 18 -32 -35 -31
-34 -19 23 c-11 12 -21 28 -24 35 -3 9 -11 9 -39 0 -63 -23 -77 -16 -60 30 8
18 55 47 78 47 7 0 20 9 28 21 8 12 19 18 26 14 6 -4 25 -8 41 -9 27 -2 30 2
49 60 12 35 27 65 33 67 14 6 37 -20 37 -42z m-155 -18 c-8 -44 -10 -47 -24
-38 -12 7 -15 58 -4 68 3 4 13 7 21 7 11 0 13 -8 7 -37z m-2225 -20 c0 -19 -3
-24 -10 -17 -6 6 -8 18 -4 27 9 24 14 21 14 -10z m2031 -42 c30 -31 36 -46 19
-56 -5 -3 -10 -18 -10 -33 0 -15 -11 -43 -24 -62 -13 -19 -27 -46 -31 -58 -11
-35 -84 -105 -102 -98 -12 5 -14 17 -8 64 10 81 28 113 85 147 27 17 50 33 50
36 0 4 -20 14 -45 23 -49 19 -60 30 -51 51 3 10 20 15 46 15 33 0 48 -6 71
-29z m-265 -83 c-25 -68 -49 -100 -71 -92 -34 13 -9 91 48 152 27 28 32 30 38
15 3 -9 -4 -43 -15 -75z m1164 61 c0 -15 -44 -49 -94 -74 -55 -27 -58 -51 -9
-71 21 -9 39 -17 40 -18 9 -8 22 -141 15 -148 -5 -5 -26 -6 -46 -3 -30 6 -36
11 -36 32 0 14 -9 38 -21 54 -17 25 -27 29 -67 29 -41 0 -50 -4 -79 -37 l-32
-38 21 -17 c19 -14 21 -19 10 -42 -17 -37 -41 -44 -63 -18 -19 24 -40 28 -68
13 -10 -6 -23 -6 -32 -1 -22 15 2 44 40 48 27 3 35 10 48 40 8 20 24 44 35 53
15 12 18 21 12 32 -5 9 -7 40 -4 69 l5 53 66 9 c55 7 71 6 89 -7 22 -16 25
-15 62 18 28 26 47 35 73 35 19 0 35 -5 35 -11z m945 -145 c-7 -70 -20 -88
-42 -58 -28 38 -27 64 1 90 14 14 26 35 26 47 1 20 1 21 11 3 7 -11 9 -42 4
-82z m-856 40 c-16 -19 -29 -17 -29 4 0 26 11 34 27 21 10 -9 10 -15 2 -25z
m498 -94 c12 0 25 -4 28 -10 9 -15 52 -12 87 6 32 16 32 16 62 -19 89 -101 87
-96 50 -144 -27 -36 -44 -42 -44 -17 0 8 -12 35 -26 59 -28 49 -49 50 -59 5
-12 -54 -55 -65 -55 -14 0 41 -18 64 -50 64 -22 0 -36 10 -64 49 -20 27 -36
53 -36 59 0 22 27 18 55 -9 17 -16 41 -29 52 -29z m-1199 4 c35 -14 51 -39 35
-55 -6 -6 -41 -17 -78 -24 -37 -8 -82 -23 -100 -34 -19 -11 -36 -17 -39 -14
-13 13 -5 51 14 68 11 10 20 24 20 31 0 7 12 22 27 34 29 22 56 21 121 -6z
m1042 11 c16 -19 -4 -44 -66 -80 -26 -15 -52 -42 -66 -67 -33 -60 -57 -58 -80
7 -17 49 -17 49 4 72 12 13 27 23 35 23 7 0 20 11 29 24 12 19 26 26 62 29 26
2 52 4 58 5 6 1 17 -5 24 -13z m1000 -15 c0 -12 -28 -25 -36 -17 -9 9 6 27 22
27 8 0 14 -5 14 -10z m-2685 -85 c-3 -22 -17 -60 -31 -84 -14 -25 -27 -65 -30
-90 -9 -68 -25 -102 -46 -95 -10 3 -18 1 -18 -4 0 -5 -17 -37 -37 -72 -25 -41
-39 -57 -41 -46 -4 18 61 154 98 206 12 17 24 49 27 71 4 25 13 44 24 50 14 7
19 21 19 54 0 24 5 56 11 72 l11 28 10 -25 c5 -14 7 -43 3 -65z m-55 -16 c0
-11 -4 -17 -10 -14 -5 3 -10 13 -10 21 0 8 5 14 10 14 6 0 10 -9 10 -21z
m2316 -37 c23 -15 25 -87 3 -131 -23 -49 -37 -49 -61 0 -20 38 -23 91 -8 120
11 19 45 25 66 11z m-896 -20 c22 -18 23 -21 13 -111 -6 -50 -14 -95 -17 -99
-11 -11 -40 13 -46 39 -4 14 -14 25 -26 27 -17 2 -27 -10 -52 -60 -19 -38 -29
-72 -26 -85 7 -24 -21 -83 -39 -83 -14 0 -58 28 -69 44 -13 19 -9 81 8 104 11
16 22 20 38 16 18 -4 26 2 43 38 12 24 31 49 43 56 13 8 20 23 20 45 0 36 13
58 45 75 28 16 40 15 65 -6z m-280 -21 c0 -28 -22 -47 -41 -35 -10 6 -12 47
-2 57 3 4 15 7 25 7 13 0 18 -8 18 -29z m1368 -57 c3 -30 36 -54 76 -54 31 0
56 -30 56 -67 0 -66 -54 -55 -78 15 -7 23 -20 42 -28 42 -8 0 -14 3 -14 8 0 4
-19 8 -42 10 -60 4 -63 10 -26 47 39 40 52 39 56 -1z m-1684 -38 c-10 -33 -22
-43 -59 -50 -21 -4 -39 -16 -46 -29 -7 -12 -15 -24 -19 -27 -4 -3 -11 -19 -14
-37 -7 -29 -5 -32 23 -38 40 -8 47 -22 26 -45 -19 -21 -75 -44 -75 -30 0 7
-79 53 -81 47 0 -1 -2 -13 -3 -26 -2 -13 -14 -33 -27 -43 -13 -10 -33 -25 -44
-33 -22 -17 -45 -20 -45 -4 0 13 48 79 73 100 19 15 19 16 0 53 -10 20 -30 43
-44 50 -20 10 -23 18 -21 46 9 84 66 113 204 103 75 -5 88 -4 94 10 5 14 9 14
35 -5 22 -16 28 -27 23 -42z m-1334 -56 c0 -5 -4 -10 -10 -10 -5 0 -10 5 -10
10 0 6 5 10 10 10 6 0 10 -4 10 -10z m2170 -15 c27 -20 44 -24 90 -23 86 2 98
-15 60 -82 -11 -19 -25 -48 -31 -63 -9 -22 -16 -26 -33 -22 -31 9 -66 52 -66
81 0 13 -4 24 -10 24 -14 0 -42 -59 -36 -75 6 -18 -12 -85 -24 -85 -5 0 -12 5
-15 10 -3 6 -19 10 -34 10 -40 0 -51 17 -51 80 1 86 52 169 106 170 5 0 25
-11 44 -25z m-2100 -82 c6 -7 10 -15 10 -18 0 -13 -17 5 -49 52 l-33 48 32
-35 c17 -19 35 -40 40 -47z m2905 -23 c18 -20 22 -70 10 -141 -6 -37 -6 -38
21 -36 23 2 29 -3 37 -30 5 -17 6 -44 3 -58 -7 -26 -8 -26 -26 -10 -10 9 -24
30 -30 46 -12 27 -14 28 -30 14 -21 -19 -30 -19 -59 6 -24 20 -38 74 -40 155
-2 62 74 98 114 54z m-2635 -48 c0 -10 -22 -32 -32 -32 -5 0 -3 9 4 20 13 20
28 27 28 12z m2120 -11 c0 -10 -7 -24 -15 -31 -13 -10 -15 -9 -15 12 0 14 3
28 7 31 12 13 23 7 23 -12z m-1011 -15 c9 -10 3 -19 -28 -41 -22 -15 -47 -38
-56 -51 -8 -13 -19 -24 -24 -24 -10 0 -20 67 -13 93 8 30 100 48 121 23z
m-566 -21 c58 -40 50 -51 -52 -75 l-65 -15 -48 -95 c-61 -119 -77 -137 -107
-119 -13 9 -21 24 -21 41 0 41 -10 58 -35 58 -47 0 -38 32 24 79 17 12 26 32
30 62 l6 44 68 17 c38 9 71 19 74 22 16 16 90 5 126 -19z m-335 -21 c2 -12 -8
-35 -22 -52 -15 -16 -26 -37 -26 -47 0 -10 -6 -15 -17 -13 -25 5 -21 53 7 101
24 41 53 46 58 11z m620 -16 c-2 -6 -10 -14 -16 -16 -7 -2 -10 2 -6 12 7 18
28 22 22 4z m387 -28 c7 -23 -4 -50 -21 -50 -21 0 -36 37 -24 60 12 22 36 17
45 -10z m-277 -62 c-6 -18 -28 -21 -28 -4 0 9 7 16 16 16 9 0 14 -5 12 -12z
m-437 -18 c29 -16 23 -46 -15 -69 -18 -12 -38 -21 -45 -21 -19 0 -12 59 9 80
23 23 25 23 51 10z m1943 -67 c32 -95 6 -144 -41 -74 -27 40 -31 102 -7 126
20 20 25 15 48 -52z m-1888 -72 c-21 -39 -52 -57 -72 -40 -25 21 -15 43 34 71
53 30 64 21 38 -31z m176 16 c15 -13 36 -46 47 -74 17 -43 18 -56 8 -88 -8
-27 -8 -41 0 -55 16 -24 -7 -56 -47 -63 -21 -5 -37 -18 -51 -41 -11 -19 -26
-37 -34 -40 -26 -9 -57 28 -65 77 -9 60 8 109 54 156 32 33 34 40 29 78 -10
74 10 92 59 50z m2231 -23 c-3 -8 -9 -14 -13 -14 -14 0 -22 20 -16 37 5 12 9
13 21 3 7 -6 11 -18 8 -26z m-2045 -15 c2 -13 14 -36 27 -51 44 -53 53 -214
10 -178 -8 7 -17 28 -21 49 -4 20 -15 53 -25 75 -10 21 -16 42 -14 47 3 4 1
10 -5 14 -11 7 -14 58 -3 69 12 12 28 0 31 -25z m2053 -139 c4 -25 17 -65 30
-89 12 -24 23 -55 24 -70 1 -14 3 -30 5 -36 7 -30 -2 -53 -24 -59 -14 -3 -30
-20 -40 -41 -22 -45 -58 -56 -90 -26 -18 17 -25 38 -31 84 -3 34 -14 74 -22
88 -15 25 -15 32 6 97 20 64 25 72 59 86 59 25 76 18 83 -34z m-881 1 c0 -12
-29 -41 -41 -41 -14 0 -11 11 8 32 17 19 33 24 33 9z m-1620 -62 c0 -23 -18
-61 -34 -71 -14 -9 -36 10 -36 33 0 21 37 59 57 59 7 0 13 -9 13 -21z m2226
-60 c26 -24 27 -33 11 -112 -1 -7 -19 -34 -39 -61 -35 -45 -38 -54 -38 -115 0
-48 -5 -75 -20 -98 -11 -18 -23 -33 -26 -33 -11 0 -33 34 -34 49 0 8 -6 22
-13 30 -15 18 -42 90 -52 139 -5 26 -2 38 19 63 15 17 26 43 26 59 0 38 17 82
38 98 26 20 98 9 128 -19z m-1241 -192 l26 -22 -66 -63 c-64 -60 -105 -78
-105 -47 0 27 -16 16 -29 -20 -7 -19 -18 -35 -25 -35 -7 0 -22 26 -33 58 -11
31 -23 65 -27 74 -6 13 -2 19 20 24 16 4 34 2 43 -5 36 -25 44 -24 83 17 45
48 74 53 113 19z m910 -67 c8 -26 -3 -62 -18 -57 -7 2 -13 20 -15 40 -2 28 1
37 12 37 8 0 18 -9 21 -20z m-620 -32 c22 -26 25 -37 20 -67 -8 -45 -31 -81
-50 -81 -17 0 -18 1 -19 103 -2 87 7 95 49 45z m307 -40 c2 -27 9 -35 36 -44
61 -19 64 -27 47 -137 -14 -91 -28 -137 -42 -137 -12 0 -32 35 -33 57 0 12
-11 30 -24 41 -35 27 -42 65 -21 113 17 36 17 40 1 57 -13 15 -14 24 -5 50 14
42 37 41 41 0z m-185 -13 c8 -22 -6 -33 -17 -15 -13 20 -12 30 0 30 6 0 13 -7
17 -15z m1143 -15 c0 -28 -22 -71 -34 -67 -14 5 -19 32 -12 63 8 30 46 34 46
4z m-2451 -53 c16 -29 3 -62 -39 -102 -17 -16 -43 -51 -57 -77 -14 -26 -32
-49 -40 -52 -19 -8 -46 8 -70 37 -10 13 -25 26 -33 30 -12 4 -11 6 2 6 10 1
26 18 38 40 21 43 44 55 83 46 20 -5 27 -2 32 14 7 24 53 81 64 81 4 0 13 -10
20 -23z m911 -46 c0 -49 -24 -73 -44 -45 -10 13 -11 25 -5 43 14 35 19 41 35
41 10 0 14 -12 14 -39z m370 -25 c6 -30 18 -60 26 -66 17 -15 18 -47 2 -53
-20 -7 -66 20 -73 43 -9 27 15 130 29 130 3 0 10 -24 16 -54z m-4640 -83 c0
-44 -20 -83 -42 -83 -13 0 -9 42 7 74 8 15 15 35 15 42 0 8 5 14 10 14 6 0 10
-21 10 -47z m4486 21 c12 -2 25 -11 28 -20 12 -30 -61 -217 -89 -228 -26 -9
-35 2 -35 42 0 20 -7 45 -15 55 -13 18 -14 17 -30 -7 -19 -29 -35 -34 -35 -11
0 8 13 21 29 29 33 17 45 52 35 101 -3 19 -3 38 0 43 5 9 58 7 112 -4z m664
-42 c0 -26 -25 -5 -28 24 -2 28 -2 28 13 10 8 -11 15 -26 15 -34z m-1312 -73
c2 -45 -15 -92 -33 -91 -16 0 -44 45 -50 82 -5 28 -2 40 15 58 20 21 24 22 43
9 16 -10 23 -26 25 -58z m-368 38 c0 -23 -17 -47 -32 -47 -9 0 -11 32 -2 54 9
24 34 19 34 -7z m755 -24 c-9 -38 -33 -73 -49 -73 -7 0 -34 -11 -60 -25 -52
-27 -55 -22 -27 41 24 53 64 84 108 84 33 0 35 -1 28 -27z m439 1 c4 -9 4 -19
2 -21 -8 -8 -26 8 -26 23 0 19 16 18 24 -2z m-1454 -149 c7 -9 10 -18 7 -21
-10 -11 -37 5 -37 21 0 19 14 19 30 0z m1089 -38 c-18 -45 -51 -89 -61 -79 -4
4 -5 24 -1 45 4 27 14 42 34 54 16 10 29 22 30 28 0 5 3 4 6 -3 3 -7 -1 -27
-8 -45z m-997 16 c23 -26 48 -79 48 -101 0 -11 -8 -30 -18 -42 l-18 -23 -12
29 c-10 28 -32 125 -32 144 0 15 15 12 32 -7z m868 -18 c0 -8 -4 -15 -10 -15
-5 0 -10 7 -10 15 0 8 5 15 10 15 6 0 10 -7 10 -15z m697 -17 c37 -39 74 -168
57 -196 -20 -31 -32 -22 -54 42 -11 35 -30 75 -41 88 -29 33 -51 77 -44 88 12
20 52 9 82 -22z m-924 -32 c-27 -48 -68 -106 -74 -106 -12 0 -21 42 -17 81 3
29 8 36 38 45 37 13 66 2 53 -20z m1691 13 c29 -14 50 -59 41 -88 -5 -17 -15
-21 -46 -21 -21 0 -39 5 -39 11 0 5 -4 8 -9 4 -5 -3 -22 6 -38 20 -21 19 -25
27 -15 33 9 6 11 18 6 37 -7 28 -7 28 34 21 23 -3 52 -11 66 -17z m-1496 -21
c19 -19 16 -24 -48 -73 -64 -49 -80 -50 -80 -7 1 20 12 36 43 59 46 35 66 40
85 21z m615 -36 c13 -14 14 -28 8 -75 -9 -64 -13 -72 -36 -64 -11 5 -15 22
-15 75 0 85 10 100 43 64z m-485 -78 c-4 -24 -35 -41 -48 -28 -17 17 0 44 27
44 17 0 24 -5 21 -16z"/>
<path d="M716 5002 c-2 -1 -33 -3 -70 -4 -70 -1 -74 -5 -56 -53 10 -25 10 -25
36 -8 25 16 27 16 41 -3 11 -14 14 -39 10 -106 -2 -49 -1 -85 4 -82 5 3 9 23
9 46 0 31 6 46 29 67 19 18 32 42 36 67 3 21 8 49 11 61 4 19 0 22 -21 21 -15
-1 -28 -4 -29 -6z"/>
<path d="M506 4908 c-6 -28 -2 -48 8 -37 8 10 15 69 7 69 -5 0 -11 -14 -15
-32z"/>
<path d="M1037 4814 c3 -8 9 -14 14 -14 5 0 15 -13 21 -30 10 -23 16 -27 28
-20 13 8 13 13 -2 37 -18 29 -71 53 -61 27z"/>
<path d="M558 4527 c-12 -62 18 -129 36 -81 15 39 3 104 -19 104 -7 0 -15 -10
-17 -23z"/>
<path d="M2823 4505 c-3 -9 -3 -18 -1 -21 3 -3 8 4 11 16 6 23 -1 27 -10 5z"/>
<path d="M3430 4393 c-36 -8 -76 -19 -90 -25 -24 -9 -24 -10 -5 -24 19 -14 19
-14 -1 -29 -16 -12 -17 -14 -2 -15 9 0 24 7 33 16 10 11 20 13 28 6 7 -5 44
-12 82 -16 78 -7 167 -30 266 -70 74 -29 83 -31 72 -13 -4 6 -8 14 -9 17 -2
16 -29 60 -36 60 -4 0 -8 10 -9 23 0 20 -1 20 -12 5 -10 -16 -13 -15 -27 14
-27 57 -164 81 -290 51z"/>
<path d="M2720 4365 c0 -8 5 -15 10 -15 6 0 10 7 10 15 0 8 -4 15 -10 15 -5 0
-10 -7 -10 -15z"/>
<path d="M525 4337 c-4 -10 -5 -21 -1 -24 10 -10 18 4 13 24 -4 17 -4 17 -12
0z"/>
<path d="M3273 4286 c-12 -6 -27 -20 -34 -33 -6 -12 -15 -21 -19 -20 -7 2
-102 -94 -98 -98 2 -2 29 1 61 7 l57 10 0 42 c0 41 21 78 52 89 7 2 11 6 8 9
-3 2 -15 -1 -27 -6z"/>
<path d="M3356 4265 c-21 -22 -24 -37 -28 -149 -6 -136 8 -256 36 -298 35 -53
158 -98 271 -98 47 0 78 5 93 15 81 57 156 346 109 419 -21 31 -146 89 -217
101 -14 2 -52 11 -85 19 -93 24 -151 21 -179 -9z m451 -337 c-3 -8 -6 -5 -6 6
-1 11 2 17 5 13 3 -3 4 -12 1 -19z m-57 -141 c0 -2 -10 -12 -22 -23 l-23 -19
19 23 c18 21 26 27 26 19z m-77 -44 c-18 -2 -48 -2 -65 0 -18 2 -4 4 32 4 36
0 50 -2 33 -4z"/>
<path d="M4610 4270 c0 -19 3 -21 12 -12 9 9 9 15 0 24 -9 9 -12 7 -12 -12z"/>
<path d="M4489 4227 c-4 -43 -3 -44 21 -37 28 7 39 43 20 66 -23 26 -38 16
-41 -29z"/>
<path d="M2988 4063 c6 -2 18 -2 25 0 6 3 1 5 -13 5 -14 0 -19 -2 -12 -5z"/>
<path d="M3940 4051 c0 -5 18 -28 40 -52 l39 -44 1 33 c0 17 5 32 10 32 22 0
8 19 -21 29 -38 13 -69 14 -69 2z"/>
<path d="M2818 4033 c6 -2 18 -2 25 0 6 3 1 5 -13 5 -14 0 -19 -2 -12 -5z"/>
<path d="M2640 4005 c-36 -7 -118 -19 -182 -26 -65 -7 -118 -16 -118 -20 0
-16 31 -31 53 -25 38 9 79 -8 125 -53 23 -22 42 -44 42 -47 0 -13 50 -113 59
-119 6 -3 11 -17 11 -30 0 -13 3 -32 7 -42 6 -16 8 -15 14 7 6 22 8 20 20 -22
7 -26 16 -45 21 -42 4 3 8 -1 8 -10 0 -8 -6 -16 -12 -19 -10 -3 -10 -9 0 -26
17 -30 15 -34 -13 -29 -19 4 -25 1 -25 -13 0 -9 6 -20 13 -23 8 -3 6 -9 -7
-20 -17 -14 -18 -19 -6 -41 16 -30 30 -23 30 16 0 16 3 29 6 29 8 0 64 -63 64
-72 0 -14 28 -9 33 6 4 9 -6 20 -27 30 -42 20 -60 76 -25 76 6 0 7 -5 4 -10
-8 -14 13 -40 31 -40 12 0 11 5 -2 25 -16 24 -15 25 5 25 16 0 21 6 21 26 0
33 17 22 25 -16 7 -32 32 -40 42 -15 3 9 -1 23 -10 33 -8 9 -24 38 -35 63 -20
46 -135 173 -146 162 -3 -4 -6 -18 -6 -32 0 -20 -2 -23 -10 -11 -5 8 -7 24 -4
35 4 11 3 17 -1 13 -9 -9 -27 9 -43 45 -10 23 -10 28 0 25 7 -3 15 -15 18 -27
3 -12 10 -22 15 -22 13 1 16 172 4 187 -13 16 15 44 44 45 12 0 31 4 42 9 l20
9 -20 -1 c-11 0 -49 -6 -85 -13z"/>
<path d="M4706 4004 c-6 -15 45 -64 67 -64 14 0 15 4 3 37 -10 29 -18 37 -39
37 -15 1 -29 -4 -31 -10z"/>
<path d="M4033 3970 c-1 -17 2 -30 7 -30 6 0 10 14 10 30 0 39 -14 39 -17 0z"/>
<path d="M2114 3968 c-35 -28 -49 -44 -68 -84 -21 -42 -33 -119 -17 -110 6 4
9 11 6 15 -7 12 53 85 93 115 40 29 98 42 118 26 9 -8 12 -26 9 -56 -4 -48 2
-53 48 -31 36 16 34 33 -10 74 -82 77 -129 90 -179 51z"/>
<path d="M3849 3914 c-7 -16 -23 -53 -36 -83 -13 -30 -21 -56 -19 -58 9 -9 44
55 59 107 18 59 15 80 -4 34z"/>
<path d="M4527 3923 c-26 -25 23 -93 67 -93 26 0 35 18 28 58 -6 31 -74 56
-95 35z"/>
<path d="M2367 3800 c-15 -12 -27 -19 -27 -16 0 3 -9 -3 -19 -13 -11 -11 -37
-25 -58 -30 -29 -8 -47 -23 -71 -56 -36 -51 -36 -53 -22 -91 l11 -27 22 22
c13 11 30 21 39 21 26 0 93 60 102 93 8 26 10 28 13 11 2 -11 -13 -56 -33
-100 -20 -43 -35 -81 -33 -84 7 -11 35 3 64 31 17 16 37 29 44 29 11 0 12 13
8 55 -3 31 -1 68 4 84 7 19 6 36 -4 59 l-13 33 -27 -21z m1 -59 c-15 -6 -20 7
-12 31 l8 23 6 -25 c3 -14 2 -27 -2 -29z"/>
<path d="M2591 3708 c0 -7 4 -22 9 -33 7 -17 9 -15 9 13 1 17 -3 32 -9 32 -5
0 -10 -6 -9 -12z"/>
<path d="M2604 3627 c-7 -20 34 -109 47 -102 7 5 7 34 -1 55 -1 3 -2 14 -1 25
2 17 0 17 -8 5 -10 -14 -12 -13 -15 9 -2 19 -16 23 -22 8z"/>
<path d="M1037 3496 c-3 -19 -2 -47 2 -63 l7 -28 18 27 c10 15 19 42 20 60 1
27 -3 34 -20 36 -17 2 -22 -3 -27 -32z"/>
<path d="M2618 3524 c-3 -5 1 -22 8 -39 10 -22 13 -25 13 -10 -1 28 -14 61
-21 49z"/>
<path d="M5316 3488 c-4 -15 0 -27 11 -35 33 -25 41 -14 23 31 -12 32 -26 33
-34 4z"/>
<path d="M2867 3450 c-7 -26 -4 -34 11 -29 4 2 5 15 2 29 l-6 25 -7 -25z"/>
<path d="M2810 3400 c0 -5 5 -10 11 -10 5 0 7 5 4 10 -3 6 -8 10 -11 10 -2 0
-4 -4 -4 -10z"/>
<path d="M2700 3381 c0 -11 4 -23 10 -26 6 -4 9 5 8 19 -3 30 -18 35 -18 7z"/>
<path d="M2767 3303 c-12 -11 -8 -23 8 -23 8 0 15 7 15 15 0 16 -12 20 -23 8z"/>
<path d="M4963 3252 c-12 -9 -31 -39 -43 -66 -11 -26 -29 -59 -40 -73 -25 -33
-26 -69 -1 -83 11 -5 23 -19 26 -31 5 -15 14 -19 33 -17 22 3 32 15 63 88 64
145 43 246 -38 182z"/>
<path d="M2940 1885 c7 -9 15 -13 17 -11 7 7 -7 26 -19 26 -6 0 -6 -6 2 -15z"/>
<path d="M3682 3259 c2 -7 10 -15 17 -17 8 -3 12 1 9 9 -2 7 -10 15 -17 17 -8
3 -12 -1 -9 -9z"/>
<path d="M3758 3233 c6 -2 18 -2 25 0 6 3 1 5 -13 5 -14 0 -19 -2 -12 -5z"/>
<path d="M3700 3103 c0 -4 4 -15 9 -22 6 -9 6 -22 -1 -34 -17 -33 21 -60 114
-81 46 -10 90 -19 98 -22 25 -6 90 53 90 82 0 15 -4 23 -10 19 -15 -10 -163
15 -180 30 -8 7 -31 16 -50 20 -19 3 -43 9 -52 11 -10 3 -18 2 -18 -3z"/>
<path d="M3260 2995 c0 -8 5 -15 10 -15 6 0 10 7 10 15 0 8 -4 15 -10 15 -5 0
-10 -7 -10 -15z"/>
<path d="M4465 2319 c-9 -14 3 -59 15 -59 18 0 33 52 18 62 -17 11 -26 10 -33
-3z"/>
<path d="M3936 1904 c-18 -17 -18 -45 -1 -51 15 -5 57 36 52 50 -6 19 -33 19
-51 1z"/>
<path d="M2415 6238 c14 -72 16 -74 32 -45 7 15 28 34 45 43 39 20 23 34 -40
34 l-44 0 7 -32z"/>
<path d="M1992 6185 c-7 -14 -12 -32 -12 -39 0 -13 72 -76 88 -76 5 0 15 14
22 31 29 68 -68 151 -98 84z"/>
<path d="M1064 6176 c-36 -30 -29 -39 22 -28 29 6 39 13 39 27 0 29 -29 29
-61 1z"/>
<path d="M36 4154 c-4 -9 -13 -14 -21 -10 -12 4 -15 -4 -15 -39 0 -36 4 -45
17 -45 9 0 26 -9 38 -20 14 -13 22 -16 22 -8 0 7 6 33 12 56 11 38 10 46 -5
63 -21 23 -40 24 -48 3z"/>
<path d="M256 15 c-18 -14 -14 -15 50 -15 l69 1 -34 14 c-42 19 -61 18 -85 0z"/>
</g>
</svg>
