<svg xmlns="http://www.w3.org/2000/svg" style="display: none;">

  <symbol id="icon-github" viewBox="0 0 24 24">
    <title>GitHub</title>
        <path d="M12 .297c-6.63 0-12 5.373-12 12 0 5.303 3.438 9.8 8.205 11.385.6.113.82-.258.82-.577 0-.285-.01-1.04-.015-2.04-3.338.724-4.042-1.61-4.042-1.61C4.422 18.07 3.633 17.7 3.633 17.7c-1.087-.744.084-.729.084-.729 1.205.084 1.838 1.236 1.838 1.236 1.07 1.835 2.809 1.305 3.495.998.108-.776.417-1.305.76-1.605-2.665-.3-5.466-1.332-5.466-5.93 0-1.31.465-2.38 1.235-3.22-.135-.303-.54-1.523.105-3.176 0 0 1.005-.322 3.3 1.23.96-.267 1.98-.399 3-.405 1.02.006 2.04.138 3 .405 2.28-1.552 3.285-1.23 3.285-1.23.645 1.653.24 2.873.12 3.176.765.84 1.23 1.91 1.23 3.22 0 4.61-2.805 5.625-5.475 5.92.42.36.81 1.096.81 2.22 0 1.606-.015 2.896-.015 3.286 0 .315.21.69.825.57C20.565 22.092 24 17.592 24 12.297 24 5.67 18.627.297 12 .297z"/>
  </symbol>

  <symbol id="icon-linkedin" viewBox="0 0 24 24">
    <title>LinkedIn</title>
    <path d="M20.447 20.452h-3.554v-5.569c0-1.328-.027-3.037-1.852-3.037-1.853 0-2.136 1.445-2.136 2.939v5.667H9.351V9h3.414v1.561h.046c.477-.9 1.637-1.85 3.37-1.85 3.601 0 4.267 2.37 4.267 5.455v6.286zM5.337 7.433c-1.144 0-2.063-.926-2.063-2.065 0-1.138.92-2.063 2.063-2.063 1.14 0 2.064.925 2.064 2.063 0 1.139-.925 2.065-2.064 2.065zm1.782 13.019H3.555V9h3.564v11.452zM22.225 0H1.771C.792 0 0 .774 0 1.729v20.542C0 23.227.792 24 1.771 24h20.451C23.2 24 24 23.227 24 22.271V1.729C24 .774 23.2 0 22.225 0z"/>
  </symbol>

  <symbol id="icon-x" viewBox="0 0 24 24">
    <title>X</title>
    <path d="M18.901 1.153h3.68l-8.04 9.19L24 22.846h-7.406l-5.8-7.584-6.638 7.584H.474l8.6-9.83L0 1.154h7.594l5.243 6.932ZM17.61 20.644h2.039L6.486 3.24H4.298Z"/>
  </symbol>
  
  <symbol id="icon-threads" viewBox="35.7 0 440.4 512">
    <title>Threads</title>
    <path d="M378.5 237.3c-2.2-1.1-4.4-2.1-6.7-3-4-72.8-43.7-114.5-110.6-114.9h-.9c-40 0-73.2 17.1-93.7 48.1l36.7 25.2c15.3-23.2 39.3-28.1 56.9-28.1h.6c22 .1 38.6 6.5 49.3 19q11.7 13.65 15.6 37.5c-19.5-3.3-40.6-4.3-63.1-3-63.5 3.7-104.4 40.7-101.6 92.2 1.4 26.1 14.4 48.6 36.6 63.3 18.8 12.4 43 18.5 68.2 17.1 33.2-1.8 59.3-14.5 77.5-37.7 13.8-17.6 22.5-40.4 26.4-69.1 15.8 9.6 27.6 22.1 34 37.2 11 25.7 11.7 67.9-22.8 102.3-30.2 30.2-66.5 43.2-121.3 43.6-60.8-.5-106.8-20-136.7-58-28-35.6-42.5-87-43-152.8.5-65.8 15-117.2 43-152.8 29.9-38 75.9-57.5 136.7-58 61.3.5 108.1 20.1 139.1 58.3 15.2 18.7 26.7 42.3 34.3 69.8l43.1-11.5c-9.2-33.8-23.6-63-43.3-87.1C393.2 25.6 335 .5 259.9 0h-.3C184.8.5 127.2 25.7 88.5 74.9c-34.4 43.8-52.2 104.6-52.8 180.9v.4c.6 76.3 18.3 137.2 52.8 180.9 38.7 49.2 96.2 74.4 171.1 74.9h.3c66.6-.5 113.5-17.9 152.1-56.5 50.6-50.5 49-113.8 32.4-152.7-11.9-27.9-34.7-50.5-65.9-65.5M263.6 345.4c-27.8 1.6-56.8-10.9-58.2-37.7-1.1-19.8 14.1-42 59.9-44.6 5.2-.3 10.4-.5 15.4-.5 16.6 0 32.2 1.6 46.3 4.7-5.2 65.9-36.1 76.6-63.4 78.1"/>
  </symbol>

  <symbol id="icon-instagram" viewBox="0 0 24 24">
    <title>Instagram</title>
    <path d="M12 0C8.74 0 8.333.015 7.053.072 5.775.132 4.905.333 4.14.63c-.784.297-1.457.717-2.126 1.387C1.333 2.705.915 3.378.63 4.14c-.3.765-.5 1.635-.558 2.913C.015 8.333 0 8.74 0 12s.015 3.667.072 4.947c.06 1.277.26 2.148.558 2.913.3.765.718 1.438 1.387 2.126.67.67 1.343 1.09 2.126 1.387.765.3 1.635.5 2.913.558C8.333 23.985 8.74 24 12 24s3.667-.015 4.947-.072c1.277-.06 2.148-.26 2.913-.558.784-.297 1.457-.718 2.126-1.387.67-.67 1.09-1.343 1.387-2.126.3-.765.5-1.635.558-2.913.06-1.28.072-1.687.072-4.947s-.015-3.667-.072-4.947c-.06-1.277-.26-2.148-.558-2.913-.3-.765-.718-1.438-1.387-2.126C21.313 1.333 20.64 1.09 19.86.63c-.765-.3-1.635-.5-2.913-.558C15.667.015 15.26 0 12 0zm0 2.16c3.203 0 3.585.012 4.85.07 1.17.052 1.805.248 2.227.415.562.217.96.477 1.382.896.419.42.679.82.896 1.383.167.422.363 1.057.413 2.227.06 1.265.072 1.646.072 4.85s-.012 3.585-.072 4.85c-.052 1.17-.248 1.805-.413 2.227-.217.562-.477.96-.896 1.382-.42.419-.82.679-1.383.896-.422.167-1.057.363-2.227.413-1.265.06-1.646.072-4.85.072s-3.585-.012-4.85-.07c-1.17-.052-1.805-.248-2.227-.413-.562-.217-.96-.477-1.382-.896-.419-.42-.679-.82-.896-1.383-.167-.422-.363-1.057-.413-2.227-.06-1.265-.072-1.646-.072-4.85s.012-3.585.072-4.85c.052-1.17.248-1.805.413-2.227.217-.562.477.96.896-1.382.42-.419.82-.679 1.383-.896.422-.167 1.057-.363 2.227-.413 1.265-.06 1.646-.072 4.85-.072zM12 5.838a6.162 6.162 0 100 12.324 6.162 6.162 0 000-12.324zM12 16a4 4 0 110-8 4 4 0 010 8zm6.406-11.845a1.44 1.44 0 100 2.88 1.44 1.44 0 000-2.88z"/>
  </symbol>

  <symbol id="icon-facebook" viewBox="0 0 24 24">
    <title>Facebook</title>
    <path d="M22.675 0h-21.35C.59 0 0 .59 0 1.325v21.35C0 23.41.59 24 1.325 24H12.82v-9.294H9.692v-3.622h3.128V8.413c0-3.1 1.893-4.788 4.659-4.788 1.325 0 2.463.099 2.795.143v3.24l-1.918.001c-1.504 0-1.795.715-1.795 1.763v2.313h3.587l-.467 3.622h-3.12V24h6.116c.735 0 1.325-.59 1.325-1.325V1.325C24 .59 23.41 0 22.675 0z"/>
  </symbol>

  <symbol id="icon-medium" viewBox="0 0 1043.63 592.71">
    <title>Medium</title>
    <path d="M588.67,296.36c0,163.67-131.78,296.35-294.33,296.35S0,460,0,296.36,131.78,0,294.34,0,588.67,132.69,588.67,296.36"/><path d="M911.56,296.36c0,154.06-65.89,279-147.17,279s-147.17-124.94-147.17-279,65.88-279,147.16-279,147.17,124.9,147.17,279"/><path d="M1043.63,296.36c0,138-23.17,249.94-51.76,249.94s-51.75-111.91-51.75-249.94S963.29,46.42,991.87,46.42s51.76,111.9,51.76,249.94"/>
  </symbol>

  <symbol id="icon-dev" viewBox="0 0 24 24">
    <title>DEV Community</title>
    <path d="M22.54 19.38l-4.06 2.14c-.13.07-.28.07-.41 0l-4.06-2.14c-.13-.07-.21-.2-.21-.34V4.96c0-.14.08-.27.21-.34l4.06-2.14c.13-.07.28-.07.41 0l4.06 2.14c.13.07.21.2.21.34v14.08c0 .14-.08.27-.21.34zM12.01 4.96v14.08c0 .14-.08.27-.21.34l-4.06 2.14c-.13.07-.28.07-.41 0L3.27 19.38c-.13-.07-.21-.2-.21-.34V4.96c0-.14.08-.27.21-.34l4.06-2.14c.13-.07.28-.07.41 0l4.06 2.14c.13.07.21.2.21.34z"/>
  </symbol>

  <symbol id="icon-email" viewBox="0 0 24 24">
    <title>Email</title>
    <path d="M22 6c0-1.1-.9-2-2-2H4c-1.1 0-2 .9-2 2v12c0 1.1.9 2 2 2h16c1.1 0 2-.9 2-2V6zm-2 0l-8 5-8-5h16zm0 12H4V8l8 5 8-5v10z"/>
  </symbol>
  
</svg>
