<svg xmlns="http://www.w3.org/2000/svg" viewBox="0 0 24 24">
  <title>Instagram</title>
  <path d="M12 0C8.74 0 8.333.015 7.053.072 5.775.132 4.905.333 4.14.63c-.784.297-1.457.717-2.126 1.387C1.333 2.705.915 3.378.63 4.14c-.3.765-.5 1.635-.558 2.913C.015 8.333 0 8.74 0 12s.015 3.667.072 4.947c.06 1.277.26 2.148.558 2.913.3.765.718 1.438 1.387 2.126.67.67 1.343 1.09 2.126 1.387.765.3 1.635.5 2.913.558C8.333 23.985 8.74 24 12 24s3.667-.015 4.947-.072c1.277-.06 2.148-.26 2.913-.558.784-.297 1.457-.718 2.126-1.387.67-.67 1.09-1.343 1.387-2.126.3-.765.5-1.635.558-2.913.06-1.28.072-1.687.072-4.947s-.015-3.667-.072-4.947c-.06-1.277-.26-2.148-.558-2.913-.3-.765-.718-1.438-1.387-2.126C21.313 1.333 20.64 1.09 19.86.63c-.765-.3-1.635-.5-2.913-.558C15.667.015 15.26 0 12 0zm0 2.16c3.203 0 3.585.012 4.85.07 1.17.052 1.805.248 2.227.415.562.217.96.477 1.382.896.419.42.679.82.896 1.383.167.422.363 1.057.413 2.227.06 1.265.072 1.646.072 4.85s-.012 3.585-.072 4.85c-.052 1.17-.248 1.805-.413 2.227-.217.562-.477.96-.896 1.382-.42.419-.82.679-1.383.896-.422.167-1.057.363-2.227.413-1.265.06-1.646.072-4.85.072s-3.585-.012-4.85-.07c-1.17-.052-1.805-.248-2.227-.413-.562-.217-.96-.477-1.382-.896-.419-.42-.679-.82-.896-1.383-.167-.422-.363-1.057-.413-2.227-.06-1.265-.072-1.646-.072-4.85s.012-3.585.072-4.85c.052-1.17.248 1.805.413-2.227.217.562.477.96.896-1.382.42-.419.82.679 1.383-.896.422-.167 1.057.363 2.227-.413 1.265-.06 1.646-.072 4.85-.072zM12 5.838a6.162 6.162 0 100 12.324 6.162 6.162 0 000-12.324zM12 16a4 4 0 110-8 4 4 0 010 8zm6.406-11.845a1.44 1.44 0 100 2.88 1.44 1.44 0 000-2.88z"/>
</svg>
